Coordinates
version=1
nRows=50
nColumns=19
inDegrees=yes

Units are S.I. units (second, meters, Newtons, ...)
Angles are in degrees.

endheader
time	1_Force_X	1_Force_Y	1_Force_Z	1_Moment_X	1_Moment_Y	1_Moment_Z	1_COP_X	1_COP_Y	1_COP_Z	2_Force_X	2_Force_Y	2_Force_Z	2_Moment_X	2_Moment_Y	2_Moment_Z	2_COP_X	2_COP_Y	2_COP_Z
0.7475	3.718	605.128	14.013	-0.291	0.000	0.477	30.495	606.007	16.576	-0.357	0.000	0.091	0.00000	14.83366	0.00000	0.00000	-3.41931	0.00000
0.7500	4.244	611.912	13.960	-0.290	0.000	0.476	28.969	613.055	16.885	-0.357	0.000	0.090	0.00000	14.93078	0.00000	0.00000	-3.52797	0.00000
0.7525	4.601	616.092	14.266	-0.290	0.000	0.475	28.048	619.080	18.154	-0.358	0.000	0.089	0.00000	14.97097	0.00000	0.00000	-3.53290	0.00000
0.7550	5.388	622.345	14.210	-0.290	0.000	0.475	27.218	625.103	19.032	-0.358	0.000	0.089	0.00000	15.06828	0.00000	0.00000	-3.53113	0.00000
0.7575	5.921	627.045	14.515	-0.290	0.000	0.474	26.129	631.469	19.557	-0.358	0.000	0.088	0.00000	15.11067	0.00000	0.00000	-3.54186	0.00000
0.7600	6.267	634.175	14.859	-0.290	0.000	0.473	25.655	638.172	19.476	-0.359	0.000	0.087	0.00000	15.24895	0.00000	0.00000	-3.54118	0.00000
0.7625	7.275	641.125	14.626	-0.290	0.000	0.473	25.131	645.056	20.399	-0.359	0.000	0.086	0.00000	15.37517	0.00000	0.00000	-3.48048	0.00000
0.7650	7.932	647.736	14.707	-0.290	0.000	0.472	24.482	650.212	20.224	-0.359	0.000	0.086	0.00000	15.51616	0.00000	0.00000	-3.48902	0.00000
0.7675	8.417	655.388	15.314	-0.290	0.000	0.472	23.832	655.370	20.093	-0.359	0.000	0.085	0.00000	15.59690	0.00000	0.00000	-3.47164	0.00000
0.7700	9.075	664.953	15.875	-0.290	0.000	0.471	23.138	662.244	20.051	-0.360	0.000	0.084	0.00000	15.75159	0.00000	0.00000	-3.56319	0.00000
0.7725	9.822	672.951	16.305	-0.290	0.000	0.471	22.795	668.949	20.015	-0.360	0.000	0.083	0.00000	15.88678	0.00000	0.00000	-3.51449	0.00000
0.7750	10.350	682.172	17.133	-0.290	0.000	0.470	21.666	675.306	19.839	-0.360	0.000	0.082	0.00000	16.05661	0.00000	0.00000	-3.62142	0.00000
0.7775	10.966	692.428	17.822	-0.290	0.000	0.470	20.452	682.691	19.100	-0.360	0.000	0.082	0.00000	16.16939	0.00000	0.00000	-3.75014	0.00000
0.7800	11.669	703.734	18.999	-0.290	0.000	0.469	19.715	690.251	18.973	-0.361	0.000	0.081	0.00000	16.37483	0.00000	0.00000	-3.85823	0.00000
0.7825	12.423	713.125	20.266	-0.290	0.000	0.469	18.759	697.469	19.151	-0.361	0.000	0.080	0.00000	16.49748	0.00000	0.00000	-3.97440	0.00000
0.7850	13.261	721.479	21.537	-0.290	0.000	0.468	17.981	705.035	19.068	-0.361	0.000	0.080	0.00000	16.74424	0.00000	0.00000	-3.90609	0.00000
0.7875	13.968	731.741	22.362	-0.290	0.000	0.467	17.021	711.915	19.723	-0.362	0.000	0.079	0.00000	16.85854	0.00000	0.00000	-3.98799	0.00000
0.7900	14.627	742.347	23.319	-0.290	0.000	0.467	15.977	719.308	20.033	-0.362	0.000	0.078	0.00000	16.97684	0.00000	0.00000	-4.05381	0.00000
0.7925	15.285	752.092	23.883	-0.290	0.000	0.466	15.061	727.734	20.737	-0.362	0.000	0.077	0.00000	17.15831	0.00000	0.00000	-4.15363	0.00000
0.7950	15.850	762.880	23.962	-0.290	0.000	0.465	14.015	734.274	21.482	-0.362	0.000	0.077	0.00000	17.35247	0.00000	0.00000	-4.14467	0.00000
0.7975	16.246	773.325	24.572	-0.290	0.000	0.464	13.188	743.038	21.707	-0.362	0.000	0.076	0.00000	17.50740	0.00000	0.00000	-4.32476	0.00000
0.8000	16.856	782.721	24.431	-0.290	0.000	0.463	12.317	750.435	22.368	-0.363	0.000	0.076	0.00000	17.65035	0.00000	0.00000	-4.33487	0.00000
0.8025	17.425	791.941	24.510	-0.290	0.000	0.462	12.097	756.289	23.288	-0.363	0.000	0.075	0.00000	17.75287	0.00000	0.00000	-4.29225	0.00000
0.8050	18.080	800.990	24.370	-0.290	0.000	0.461	11.576	761.619	23.463	-0.363	0.000	0.074	0.00000	17.91104	0.00000	0.00000	-4.32702	0.00000
0.8075	18.685	809.179	23.796	-0.290	0.000	0.460	11.316	768.324	23.685	-0.363	0.000	0.073	0.00000	18.16017	0.00000	0.00000	-4.38258	0.00000
0.8100	18.988	815.625	23.001	-0.290	0.000	0.459	10.749	772.456	24.162	-0.363	0.000	0.072	0.00000	18.24363	0.00000	0.00000	-4.38238	0.00000
0.8125	19.946	822.584	22.423	-0.291	0.000	0.458	10.490	776.242	24.420	-0.363	0.000	0.071	0.00000	18.43874	0.00000	0.00000	-4.32508	0.00000
0.8150	20.331	830.766	21.580	-0.291	0.000	0.457	10.008	780.374	24.940	-0.363	0.000	0.070	0.00000	18.59607	0.00000	0.00000	-4.33704	0.00000
0.8175	20.855	837.563	21.050	-0.291	0.000	0.456	9.184	784.325	24.498	-0.363	0.000	0.070	0.00000	18.75690	0.00000	0.00000	-4.40175	0.00000
0.8200	21.550	844.871	20.516	-0.291	0.000	0.455	8.838	789.485	24.541	-0.363	0.000	0.069	0.00000	18.90111	0.00000	0.00000	-4.38516	0.00000
0.8225	22.119	849.750	20.031	-0.291	0.000	0.454	8.446	790.522	24.750	-0.364	0.000	0.068	0.00000	19.01905	0.00000	0.00000	-4.33207	0.00000
0.8250	22.463	856.545	19.324	-0.291	0.000	0.453	7.444	794.819	24.610	-0.363	0.000	0.067	0.00000	19.16624	0.00000	0.00000	-4.44767	0.00000
0.8275	23.074	862.288	18.660	-0.291	0.000	0.452	6.794	797.403	24.386	-0.363	0.000	0.066	0.00000	19.22165	0.00000	0.00000	-4.32224	0.00000
0.8300	23.553	866.302	17.780	-0.291	0.000	0.451	6.880	799.985	24.821	-0.364	0.000	0.066	0.00000	19.37550	0.00000	0.00000	-4.34292	0.00000
0.8325	24.112	869.262	16.371	-0.291	0.000	0.450	6.529	801.029	25.553	-0.364	0.000	0.065	0.00000	19.47676	0.00000	0.00000	-4.20622	0.00000
0.8350	24.061	873.629	15.363	-0.291	0.000	0.449	5.918	804.300	25.856	-0.364	0.000	0.064	0.00000	19.55038	0.00000	0.00000	-4.21078	0.00000
0.8375	24.086	877.808	13.644	-0.291	0.000	0.448	5.263	805.680	26.109	-0.364	0.000	0.063	0.00000	19.63907	0.00000	0.00000	-4.20784	0.00000
0.8400	23.686	878.863	12.328	-0.291	0.000	0.447	5.826	808.100	27.244	-0.364	0.000	0.062	0.00000	19.52616	0.00000	0.00000	-4.04490	0.00000
0.8425	22.786	880.792	9.913	-0.292	0.000	0.446	5.609	809.482	27.456	-0.364	0.000	0.062	0.00000	19.45210	0.00000	0.00000	-3.92836	0.00000
0.8450	23.516	884.103	8.106	-0.292	0.000	0.445	6.309	812.065	27.501	-0.364	0.000	0.061	0.00000	19.69248	0.00000	0.00000	-3.80150	0.00000
0.8475	24.123	886.198	6.301	-0.292	0.000	0.444	6.396	814.474	27.628	-0.364	0.000	0.060	0.00000	19.80056	0.00000	0.00000	-3.80133	0.00000
0.8500	23.674	888.984	4.980	-0.292	0.000	0.443	7.148	816.535	26.668	-0.364	0.000	0.060	0.00000	19.65482	0.00000	0.00000	-3.61834	0.00000
0.8525	23.622	891.610	4.060	-0.292	0.000	0.442	7.242	818.936	25.614	-0.364	0.000	0.059	0.00000	19.77949	0.00000	0.00000	-3.62718	0.00000
0.8550	24.321	893.354	3.136	-0.292	0.000	0.441	7.949	821.163	24.522	-0.363	0.000	0.058	0.00000	19.88351	0.00000	0.00000	-3.58526	0.00000
0.8575	24.185	894.414	2.306	-0.292	0.000	0.441	8.608	821.848	23.906	-0.363	0.000	0.058	0.00000	19.93186	0.00000	0.00000	-3.53375	0.00000
0.8600	24.570	897.019	1.333	-0.292	0.000	0.440	9.576	822.021	23.115	-0.364	0.000	0.057	0.00000	20.00327	0.00000	0.00000	-3.28123	0.00000
0.8625	24.885	898.251	1.558	-0.292	0.000	0.439	10.194	823.219	22.149	-0.364	0.000	0.056	0.00000	20.07889	0.00000	0.00000	-3.25432	0.00000
0.8650	24.402	899.132	1.564	-0.292	0.000	0.439	10.725	824.760	21.097	-0.364	0.000	0.055	0.00000	20.01263	0.00000	0.00000	-3.21243	0.00000
0.8675	23.476	901.929	1.835	-0.292	0.000	0.439	11.517	824.069	20.128	-0.364	0.000	0.054	0.00000	19.96820	0.00000	0.00000	-3.08557	0.00000
0.8700	22.770	903.159	1.798	-0.292	0.000	0.438	12.266	824.924	19.120	-0.364	0.000	0.054	0.00000	19.94022	0.00000	0.00000	-2.99855	0.00000
